# xmcd
#
# Track frame offsets:
#	150
#	10912
#	24906
#	36016
#	49146
#	60918
#	74480
#	85973
#	98483
#	109266
#	117429
#	127898
#	145612
#	160149
#	175954
#	187677
#	198822
#	211374
#	222386
#	236255
#
# Disc length: 3360 seconds
#
# Revision: 1
# Processed by: cddbd v1.5.2PL0 Copyright (c) Steve Scherf et al.
# Submitted via: audiograbber 1.83.01
#
DISCID=040d1e14
DTITLE=Gary Smith - Gary Smith - Stolen Requests
DYEAR=1900
DGENRE=Country
TTITLE0=Silver Bells
TTITLE1=Suvla Bay
TTITLE2=Just A Closer Walk With Thee
TTITLE3=Frieght Train
TTITLE4=Music Box Dancer
TTITLE5=If Tomorrow Never Comes
TTITLE6=Under The Double Eagle
TTITLE7=Winter Winds
TTITLE8=Rose Of San Antone
TTITLE9=Carnival Of Venice
TTITLE10=In An Old Dutch Garden
TTITLE11=Stolen Moments
TTITLE12=Lead Me Down To The Stockyard
TTITLE13=The Traveller's Prayer
TTITLE14=Jambalya
TTITLE15=May You Never Be Alone
TTITLE16=Where The Roper River Flows
TTITLE17=Wheels
TTITLE18=White Crosses In The Jungle
TTITLE19=The Old Rugged Cross
EXTD=
EXTT0=
EXTT1=
EXTT2=
EXTT3=
EXTT4=
EXTT5=
EXTT6=
EXTT7=
EXTT8=
EXTT9=
EXTT10=
EXTT11=
EXTT12=
EXTT13=
EXTT14=
EXTT15=
EXTT16=
EXTT17=
EXTT18=
EXTT19=
PLAYORDER=
